<?xml version="1.0"?>
<svg xmlns="http://www.w3.org/2000/svg" version="1.1" width="120" height="120" viewBox="-10 -10 120 120">
  <style>
    .m {
      stroke: blue;
      stroke-width: 14;
      stroke-linecap: round;
    }
    .box {
      stroke: black;
      stroke-width: 4;
      stroke-linecap: round;
    }
  </style>
  <defs>
    <pattern id="smallGrid" width="10" height="10" patternUnits="userSpaceOnUse">
      <path d="M 10 0 L 0 0 0 10" fill="none" stroke="gray" stroke-width=".4"/>
    </pattern>
    <pattern id="grid" width="120" height="120" patternUnits="userSpaceOnUse">
      <rect width="120" height="120" fill="url(#smallGrid)"/>
      <path d="M 120 0 L 0 0 0 120" fill="none" stroke="gray" stroke-width="2"/>
    </pattern>
  </defs>
  <!-- background -->
  <rect width="100%" height="100%" fill="white"/>
  <!-- <rect width="100%" height="100%" fill="url(#grid)"/> -->
  <!-- box bottom -->
  <line class="box" x1="10" y1="70" x2="50" y2="100"/>
  <line class="box" x1="50" y1="100" x2="90" y2="70"/>
  <line class="box" x1="10" y1="70" x2="50" y2="40"  />
  <line class="box" x1="50" y1="40" x2="90" y2="70"  />
  <!-- box top -->
  <line class="box" x1="10" y1="30" x2="50" y2="0"   />
  <line class="box" x1="50" y1="0" x2="90" y2="30"    />
  <!-- box line down bottom -->
  <line class="box" x1="50" y1="60" x2="50" y2="100"   />
  <!-- box line down top -->
  <line class="box" x1="50" y1="0" x2="50" y2="40"    />
  <!-- blue m -->
  <line class="m" x1="10" y1="30" x2="10" y2="70"  />
  <line class="m" x1="10" y1="30" x2="50" y2="60"  />
  <line class="m" x1="50" y1="60" x2="90" y2="30"  />
  <line class="m" x1="90" y1="30" x2="90" y2="70"  />
</svg>